<?xml version="1.0" encoding="iso-8859-1"?>
<!-- Generator: Adobe Illustrator 19.0.0, SVG Export Plug-In . SVG Version: 6.00 Build 0)  -->
<svg xmlns="http://www.w3.org/2000/svg" xmlns:xlink="http://www.w3.org/1999/xlink" version="1.1" id="Layer_1" x="0px" y="0px" viewBox="0 0 469.333 469.333" style="enable-background:new 0 0 469.333 469.333;" xml:space="preserve" width="512px" height="512px">
<g>
	<g>
		<path d="M468.661,305.999l0.12-0.04l-60.391-181.172c10.767-5.158,18.276-16.072,18.276-28.786c0-17.646-14.354-32-32-32H274.803    c1.536-3.34,2.53-6.887,2.53-10.667c0-15.385-17-53.333-42.667-53.333S192,37.948,192,53.333c0,3.78,0.994,7.327,2.53,10.667    H74.667c-17.646,0-32,14.354-32,32c0,12.715,7.509,23.629,18.276,28.786L0.552,305.958l0.12,0.04    C0.318,307.062,0,308.15,0,309.333C0,350.5,33.5,384,74.667,384s74.667-33.5,74.667-74.667c0-1.184-0.318-2.271-0.672-3.335    l0.12-0.04L88.396,124.802c4.012-1.96,7.595-4.738,10.479-8.208c34.418,17.607,72.105,27.945,110.566,31.236    c-6.766,120.745-20.663,227.587-26.074,257.504h-12.701C147.135,405.333,128,424.469,128,448v10.667    c0,5.896,4.771,10.667,10.667,10.667h192c5.896,0,10.667-4.771,10.667-10.667V448c0-23.531-19.135-42.667-42.667-42.667h-12.701    c-5.411-29.917-19.309-136.759-26.074-257.504c38.461-3.29,76.148-13.629,110.566-31.236c2.884,3.47,6.467,6.249,10.479,8.208    l-60.385,181.156l0.12,0.04c-0.354,1.064-0.672,2.151-0.672,3.335C320,350.5,353.5,384,394.667,384    c41.167,0,74.667-33.5,74.667-74.667C469.333,308.15,469.016,307.062,468.661,305.999z M234.667,21.333    c9.24,0,21.333,23.437,21.333,32C256,57.687,247.687,64,234.667,64s-21.333-6.313-21.333-10.667    C213.333,44.771,225.427,21.333,234.667,21.333z M74.667,362.667c-25.76,0-47.302-18.354-52.26-42.667h104.521    C121.969,344.313,100.427,362.667,74.667,362.667z M123.871,298.667H25.462l49.204-147.604L123.871,298.667z M298.667,426.667    c11.76,0,21.333,9.573,21.333,21.333H149.333c0-11.76,9.573-21.333,21.333-21.333H298.667z M264.292,405.333h-59.25    c6.668-38.935,19.479-145.389,25.71-256.233c1.31,0.017,2.604,0.233,3.915,0.233s2.605-0.216,3.915-0.233    C244.812,259.944,257.624,366.398,264.292,405.333z M378.552,92.375c-2.969-1.188-6.323-0.958-9.146,0.594    c-82.188,45.833-187.292,45.833-269.479,0c-1.615-0.896-3.396-1.354-5.198-1.354c-1.333,0-2.677,0.25-3.948,0.76    c-2.979,1.188-5.271,3.646-6.229,6.708c-1.448,4.604-5.323,7.583-9.885,7.583C68.781,106.667,64,101.885,64,96    c0-5.885,4.781-10.667,10.667-10.667h320c5.885,0,10.667,4.781,10.667,10.667c0,5.885-4.781,10.667-10.667,10.667    c-4.563,0-8.438-2.979-9.885-7.583C383.823,96.021,381.531,93.562,378.552,92.375z M394.667,151.062l49.204,147.604h-98.409    L394.667,151.062z M394.667,362.667c-25.76,0-47.302-18.354-52.26-42.667h104.521    C441.969,344.313,420.427,362.667,394.667,362.667z" fill="#FFFFFF"/>
	</g>
</g>
<g>
</g>
<g>
</g>
<g>
</g>
<g>
</g>
<g>
</g>
<g>
</g>
<g>
</g>
<g>
</g>
<g>
</g>
<g>
</g>
<g>
</g>
<g>
</g>
<g>
</g>
<g>
</g>
<g>
</g>
</svg>
