<?xml version="1.0" encoding="iso-8859-1"?>
<!-- Generator: Adobe Illustrator 19.0.0, SVG Export Plug-In . SVG Version: 6.00 Build 0)  -->
<svg xmlns="http://www.w3.org/2000/svg" xmlns:xlink="http://www.w3.org/1999/xlink" version="1.1" id="Layer_1" x="0px" y="0px" viewBox="0 0 469.333 469.333" style="enable-background:new 0 0 469.333 469.333;" xml:space="preserve" width="512px" height="512px">
<g>
	<g>
		<g>
			<path d="M448,243.482V42.667C448,19.135,428.854,0,405.333,0H42.667C19.146,0,0,19.135,0,42.667v362.667     C0,428.865,19.146,448,42.667,448h200.815c22.414,13.452,48.533,21.333,76.518,21.333c82.333,0,149.333-66.99,149.333-149.333     C469.333,292.013,461.452,265.895,448,243.482z M234.667,21.333h170.667c11.771,0,21.333,9.573,21.333,21.333v173.025     c-27.13-27.738-64.9-45.025-106.667-45.025c-31.727,0-61.117,10.021-85.333,26.961V21.333z M21.333,42.667     c0-11.76,9.563-21.333,21.333-21.333h170.667v192h-192V42.667z M42.667,426.667c-11.771,0-21.333-9.573-21.333-21.333V234.667     h176.294c-16.939,24.215-26.961,53.605-26.961,85.333c0,41.77,17.288,79.538,45.025,106.667H42.667z M320,448     c-70.583,0-128-57.417-128-128c0-70.583,57.417-128,128-128s128,57.417,128,128C448,390.583,390.583,448,320,448z" fill="#FFFFFF"/>
			<path d="M160,106.667h-32v-32C128,68.771,123.229,64,117.333,64c-5.896,0-10.667,4.771-10.667,10.667v32h-32     c-5.896,0-10.667,4.771-10.667,10.667C64,123.229,68.771,128,74.667,128h32v32c0,5.896,4.771,10.667,10.667,10.667     c5.896,0,10.667-4.771,10.667-10.667v-32h32c5.896,0,10.667-4.771,10.667-10.667C170.667,111.437,165.896,106.667,160,106.667z" fill="#FFFFFF"/>
			<path d="M384,117.333c0-5.896-4.771-10.667-10.667-10.667H288c-5.896,0-10.667,4.771-10.667,10.667     c0,5.896,4.771,10.667,10.667,10.667h85.333C379.229,128,384,123.229,384,117.333z" fill="#FFFFFF"/>
			<path d="M156.875,291.125c-4.167-4.167-10.917-4.167-15.083,0l-24.458,24.458l-24.458-24.458c-4.167-4.167-10.917-4.167-15.083,0     c-4.167,4.167-4.167,10.917,0,15.083l24.458,24.458l-24.458,24.458c-4.167,4.167-4.167,10.917,0,15.083     c2.083,2.083,4.813,3.125,7.542,3.125c2.729,0,5.458-1.042,7.542-3.125l24.458-24.458l24.458,24.458     c2.083,2.083,4.813,3.125,7.542,3.125c2.729,0,5.458-1.042,7.542-3.125c4.167-4.167,4.167-10.917,0-15.083l-24.458-24.458     l24.458-24.458C161.042,302.042,161.042,295.292,156.875,291.125z" fill="#FFFFFF"/>
			<path d="M373.333,277.333H266.667c-5.896,0-10.667,4.771-10.667,10.667c0,5.896,4.771,10.667,10.667,10.667h106.667     c5.896,0,10.667-4.771,10.667-10.667C384,282.104,379.229,277.333,373.333,277.333z" fill="#FFFFFF"/>
			<path d="M373.333,341.333H266.667c-5.896,0-10.667,4.771-10.667,10.667c0,5.896,4.771,10.667,10.667,10.667h106.667     c5.896,0,10.667-4.771,10.667-10.667C384,346.104,379.229,341.333,373.333,341.333z" fill="#FFFFFF"/>
		</g>
	</g>
</g>
<g>
</g>
<g>
</g>
<g>
</g>
<g>
</g>
<g>
</g>
<g>
</g>
<g>
</g>
<g>
</g>
<g>
</g>
<g>
</g>
<g>
</g>
<g>
</g>
<g>
</g>
<g>
</g>
<g>
</g>
</svg>
