<?xml version="1.0" encoding="iso-8859-1"?>
<!-- Generator: Adobe Illustrator 19.0.0, SVG Export Plug-In . SVG Version: 6.00 Build 0)  -->
<svg version="1.1" id="Capa_1" xmlns="http://www.w3.org/2000/svg" xmlns:xlink="http://www.w3.org/1999/xlink" x="0px" y="0px"
	 viewBox="0 0 512 512" style="enable-background:new 0 0 512 512;" xml:space="preserve">
<path style="fill:#303C42;" d="M448,309.333c-20.827,0-64,11.598-85.885,17.885c-2.904-30.609-42.125-41.444-82.656-49.677
	c-18.5-3.75-32.271-10.385-45.583-16.813c-16.417-7.917-31.917-15.396-52.542-15.396c-23.618,0-45.142,4.831-57.288,8.173
	c-3.211-11.172-12.32-20.177-24.421-22.59L12.75,213.542c-3.125-0.625-6.375,0.188-8.854,2.208C1.437,217.781,0,220.802,0,224
	v170.667c0,5.896,4.771,10.667,10.667,10.667H77.5c13.172,0,24.397-8.379,29.223-20.142C130.625,396.586,241.081,448,288,448
	c41.375,0,126.563-41.875,182.917-69.583c14.688-7.219,26.833-13.198,34.708-16.646C509.5,360.063,512,356.229,512,352
	C512,326.875,485.688,309.333,448,309.333z"/>
<path style="fill:#29B6F6;" d="M77.39,384H21.223V237.01l74.125,14.823c5.542,1.115,9.271,6.365,8.458,11.969L87.952,374.844
	C87.202,380.063,82.661,384,77.39,384z"/>
<path style="fill:#FFE082;" d="M461.39,359.271c-51.271,25.208-137.083,67.396-173.5,67.396
	c-38.792,0-140.688-45.427-176.667-62.927c-0.04-0.02-0.085-0.013-0.125-0.031l12.551-87.904c7.772-2.431,31.518-9.138,57.574-9.138
	c15.75,0,27.896,5.865,43.292,13.281c13.813,6.667,29.479,14.219,50.583,18.51c46.354,9.396,66.125,19.031,66.125,32.208
	c0,2.604-0.792,4.208-2.813,5.719c-6.792,5.073-33.271,13.594-132.813-15.948c-5.729-1.646-11.604,1.552-13.271,7.198
	c-1.667,5.646,1.542,11.583,7.188,13.26c49.146,14.563,86.708,21.823,113.333,21.823c17.354,0,30.083-3.083,38.312-9.24
	c0.708-0.529,3.203-1.74,3.875-1.948c18.854-5.802,72.292-20.865,92.854-20.865c17.396,0,35.708,5.281,41.083,15.208
	C481.536,349.375,472.14,354,461.39,359.271z"/>
<path style="fill:#303C42;" d="M334.057,253.229c2.021,1.844,4.604,2.771,7.167,2.771c2.562,0,5.146-0.927,7.167-2.771
	l117.333-106.667c2.166-1.969,3.438-4.729,3.5-7.646s-1.063-5.729-3.125-7.792l-64-64c-2-2-4.708-3.125-7.542-3.125H287.89
	c-2.833,0-5.542,1.125-7.542,3.125l-64,64c-2.063,2.063-3.188,4.875-3.125,7.792s1.333,5.677,3.5,7.646L334.057,253.229z"/>
<g>
	<polygon style="fill:#FAFAFA;" points="391.102,149.333 430.964,149.333 368.324,206.28 	"/>
	<polygon style="fill:#FAFAFA;" points="341.223,216.635 314.303,149.333 368.144,149.333 	"/>
	<polygon style="fill:#FAFAFA;" points="313.363,128 327.584,85.333 354.863,85.333 369.084,128 	"/>
	<polygon style="fill:#FAFAFA;" points="291.344,149.333 314.123,206.28 251.482,149.333 	"/>
	<polygon style="fill:#FAFAFA;" points="432.799,128 391.584,128 377.363,85.333 390.14,85.333 	"/>
	<polygon style="fill:#FAFAFA;" points="292.307,85.333 305.084,85.333 290.863,128 249.648,128 	"/>
</g>
<linearGradient id="SVGID_1_" gradientUnits="userSpaceOnUse" x1="-42.0687" y1="632.301" x2="-35.2073" y2="625.4425" gradientTransform="matrix(21.3333 0 0 -21.3333 996.3334 13791.667)">
	<stop  offset="0" style="stop-color:#000000;stop-opacity:0.1"/>
	<stop  offset="1" style="stop-color:#000000;stop-opacity:0"/>
</linearGradient>
<path style="fill:url(#SVGID_1_);" d="M123.318,278.117l-12.22,85.591c0.04,0.018,0.085,0.012,0.125,0.031
	c31.271,15.21,112.292,51.483,158.441,60.724L123.318,278.117z"/>
<path style="opacity:0.1;enable-background:new    ;" d="M21.223,309.333V384H77.39c5.271,0,9.813-3.938,10.563-9.156l9.353-65.51
	H21.223z"/>
<linearGradient id="SVGID_2_" gradientUnits="userSpaceOnUse" x1="-45.2402" y1="639.2322" x2="-23.144" y2="628.9281" gradientTransform="matrix(21.3333 0 0 -21.3333 996.3334 13791.667)">
	<stop  offset="0" style="stop-color:#FFFFFF;stop-opacity:0.2"/>
	<stop  offset="1" style="stop-color:#FFFFFF;stop-opacity:0"/>
</linearGradient>
<path style="fill:url(#SVGID_2_);" d="M448,309.333c-20.827,0-64,11.598-85.885,17.885c-2.904-30.609-42.125-41.444-82.656-49.677
	c-18.5-3.75-32.271-10.385-45.583-16.813c-16.417-7.917-31.917-15.396-52.542-15.396c-23.618,0-45.142,4.831-57.288,8.173
	c-3.211-11.172-12.32-20.177-24.421-22.59L12.75,213.542c-3.125-0.625-6.375,0.188-8.854,2.208C1.437,217.781,0,220.802,0,224
	v170.667c0,5.896,4.771,10.667,10.667,10.667H77.5c13.172,0,24.397-8.379,29.223-20.142C130.625,396.586,241.081,448,288,448
	c41.375,0,126.563-41.875,182.917-69.583c14.688-7.219,26.833-13.198,34.708-16.646C509.5,360.063,512,356.229,512,352
	C512,326.875,485.688,309.333,448,309.333z M334.167,253.229c2.021,1.844,4.604,2.771,7.167,2.771s5.146-0.927,7.167-2.771
	l117.333-106.667c2.167-1.969,3.438-4.729,3.5-7.646s-1.063-5.729-3.125-7.792l-64-64c-2-2-4.708-3.125-7.542-3.125H288
	c-2.833,0-5.542,1.125-7.542,3.125l-64,64c-2.063,2.063-3.188,4.875-3.125,7.792s1.333,5.677,3.5,7.646L334.167,253.229z"/>
<g>
</g>
<g>
</g>
<g>
</g>
<g>
</g>
<g>
</g>
<g>
</g>
<g>
</g>
<g>
</g>
<g>
</g>
<g>
</g>
<g>
</g>
<g>
</g>
<g>
</g>
<g>
</g>
<g>
</g>
</svg>
