<?xml version="1.0" encoding="iso-8859-1"?>
<!-- Generator: Adobe Illustrator 19.0.0, SVG Export Plug-In . SVG Version: 6.00 Build 0)  -->
<svg version="1.1" id="Capa_1" xmlns="http://www.w3.org/2000/svg" xmlns:xlink="http://www.w3.org/1999/xlink" x="0px" y="0px"
	 viewBox="0 0 512 512" style="enable-background:new 0 0 512 512;" xml:space="preserve">
<path style="fill:#303C42;" d="M469.333,21.333H42.667C19.135,21.333,0,40.469,0,64v298.667c0,23.531,19.135,42.667,42.667,42.667
	h149.362c-0.46,17.052-3.728,44.306-15.893,57.104c-4.469,4.708-9.604,6.896-16.135,6.896c-5.896,0-10.667,4.771-10.667,10.667
	c0,5.896,4.771,10.667,10.667,10.667h192c5.896,0,10.667-4.771,10.667-10.667c0-5.896-4.771-10.667-10.667-10.667
	c-6.531,0-11.667-2.188-16.135-6.896c-12.165-12.798-15.434-40.052-15.893-57.104h149.362c23.531,0,42.667-19.135,42.667-42.667V64
	C512,40.469,492.865,21.333,469.333,21.333z"/>
<path style="fill:#CFE8FC;" d="M42.667,42.667h426.667c11.76,0,21.333,9.573,21.333,21.333v234.667H21.333V64
	C21.333,52.24,30.906,42.667,42.667,42.667z"/>
<path style="fill:#303C42;" d="M96,277.333h64c5.896,0,10.667-4.771,10.667-10.667v-85.333c0-5.896-4.771-10.667-10.667-10.667H96
	c-5.896,0-10.667,4.771-10.667,10.667v85.333C85.333,272.563,90.104,277.333,96,277.333z"/>
<path style="fill:#F2F2F2;" d="M469.333,384H42.667c-11.76,0-21.333-9.573-21.333-21.333V320h469.333v42.667
	C490.667,374.427,481.094,384,469.333,384z"/>
<rect x="106.667" y="192" style="fill:#1E88E5;" width="42.667" height="64"/>
<path style="fill:#303C42;" d="M224,277.333h64c5.896,0,10.667-4.771,10.667-10.667V117.333c0-5.896-4.771-10.667-10.667-10.667h-64
	c-5.896,0-10.667,4.771-10.667,10.667v149.333C213.333,272.563,218.104,277.333,224,277.333z"/>
<rect x="234.667" y="128" style="fill:#1E88E5;" width="42.667" height="128"/>
<path style="fill:#303C42;" d="M352,277.333h64c5.896,0,10.667-4.771,10.667-10.667v-192C426.667,68.771,421.896,64,416,64h-64
	c-5.896,0-10.667,4.771-10.667,10.667v192C341.333,272.563,346.104,277.333,352,277.333z"/>
<linearGradient id="SVGID_1_" gradientUnits="userSpaceOnUse" x1="-36.654" y1="640.4354" x2="-26.203" y2="629.9844" gradientTransform="matrix(21.3333 0 0 -21.3333 996.3334 13791.667)">
	<stop  offset="0" style="stop-color:#000000;stop-opacity:0.1"/>
	<stop  offset="1" style="stop-color:#000000;stop-opacity:0"/>
</linearGradient>
<path style="fill:url(#SVGID_1_);" d="M423.771,67.38l-0.02,0.049c1.777,1.905,2.915,4.423,2.915,7.237v192
	c0,5.896-4.771,10.667-10.667,10.667h-64c-5.896,0-10.667-4.771-10.667-10.667v-110.87l-44.691-44.691l-0.089,0.18
	c1.233,1.741,2.113,3.751,2.113,6.048v149.333c0,5.896-4.771,10.667-10.667,10.667h-64c-5.896,0-10.667-4.771-10.667-10.667V219.82
	l-44.863-44.863l-0.076,0.094c1.335,1.781,2.272,3.883,2.272,6.283v85.333c0,5.896-4.771,10.667-10.667,10.667H96
	c-2.801,0-5.303-1.133-7.206-2.895l-0.033,0.04l24.188,24.188h127.974h51.258h76.751h115.271h6.464V134.276L423.771,67.38z"/>
<rect x="362.667" y="85.333" style="fill:#1E88E5;" width="42.667" height="170.667"/>
<path style="fill:#F2F2F2;" d="M314.271,469.333H197.729c12.882-19.749,15.374-48.188,15.695-64h85.151
	C298.897,421.146,301.389,449.585,314.271,469.333z"/>
<circle style="fill:#303C42;" cx="256" cy="352" r="21.333"/>
<linearGradient id="SVGID_2_" gradientUnits="userSpaceOnUse" x1="-35.701" y1="628.4822" x2="-31.8374" y2="624.6187" gradientTransform="matrix(21.3333 0 0 -21.3333 996.3334 13791.667)">
	<stop  offset="0" style="stop-color:#000000;stop-opacity:0.1"/>
	<stop  offset="1" style="stop-color:#000000;stop-opacity:0"/>
</linearGradient>
<path style="fill:url(#SVGID_2_);" d="M314.271,469.333c-12.882-19.749-15.374-48.188-15.695-64h-85.151l64,64H314.271z"/>
<linearGradient id="SVGID_3_" gradientUnits="userSpaceOnUse" x1="-47.6559" y1="641.8846" x2="-22.2407" y2="630.0325" gradientTransform="matrix(21.3333 0 0 -21.3333 996.3334 13791.667)">
	<stop  offset="0" style="stop-color:#FFFFFF;stop-opacity:0.2"/>
	<stop  offset="1" style="stop-color:#FFFFFF;stop-opacity:0"/>
</linearGradient>
<path style="fill:url(#SVGID_3_);" d="M469.333,21.333H42.667C19.135,21.333,0,40.469,0,64v298.667
	c0,23.531,19.135,42.667,42.667,42.667h149.362c-0.46,17.052-3.728,44.306-15.893,57.104c-4.469,4.708-9.604,6.896-16.135,6.896
	c-5.896,0-10.667,4.771-10.667,10.667c0,5.896,4.771,10.667,10.667,10.667h192c5.896,0,10.667-4.771,10.667-10.667
	c0-5.896-4.771-10.667-10.667-10.667c-6.531,0-11.667-2.188-16.135-6.896c-12.165-12.798-15.434-40.052-15.893-57.104h149.362
	c23.531,0,42.667-19.135,42.667-42.667V64C512,40.469,492.865,21.333,469.333,21.333z"/>
<g>
</g>
<g>
</g>
<g>
</g>
<g>
</g>
<g>
</g>
<g>
</g>
<g>
</g>
<g>
</g>
<g>
</g>
<g>
</g>
<g>
</g>
<g>
</g>
<g>
</g>
<g>
</g>
<g>
</g>
</svg>
